# xmcd
#
# Track frame offsets: 
#        150
#        14749
#        28039
#        38505
#        54998
#        66059
#        77546
#        88258
#        102531
#        114216
#        125507
#        139909
#        152390
#        162278
#        174778
#        187826
#
# Disc length: 2684 seconds
#
# Revision: 0
# Processed by: cddbd v1.5.2PL0 Copyright (c) Steve Scherf et al.
# Submitted via: ExactAudioCopy v0.99pb5
#
DISCID=c00a7a10
DTITLE=Various Artist - Country and Western Hits  cd7
DYEAR=2000
DGENRE=Country
TTITLE0=Hardrock Gunter - Rye whiskey
TTITLE1=Lefty Frizzell - Don't stay away
TTITLE2=Sheb Wooley - Mule Boogie
TTITLE3=Gene Autry - Ghost riders in the sky
TTITLE4=Tex Williams - Dusty skies
TTITLE5=Eddy Arnold - Little angel with a dirty face
TTITLE6=Don Gibson - Walking in the moonlight
TTITLE7=Ferlin Husky - Hank's song
TTITLE8=Ernest Tubb - GIRLS spells trouble
TTITLE9=Hank Thompson - A broken heart and a glass of beer
TTITLE10=Red Foley - Peace in the valley
TTITLE11=Patsy Montana - Praide of the prarie
TTITLE12=Johnny Horton - Two red lipps and warm red wine
TTITLE13=Merle Travis - What a shame
TTITLE14=Hank Williams - Jambalaya
TTITLE15=Cowboy Copas - Tennessee waltz
EXTD=
EXTT0=
EXTT1=
EXTT2=
EXTT3=
EXTT4=
EXTT5=
EXTT6=
EXTT7=
EXTT8=
EXTT9=
EXTT10=
EXTT11=
EXTT12=
EXTT13=
EXTT14=
EXTT15=
PLAYORDER=
